<?xml version="1.0" encoding="UTF-8"?>
<svg xmlns="http://www.w3.org/2000/svg" xmlns:xlink="http://www.w3.org/1999/xlink" width="854" height="480" viewBox="0 0 854 480">
<defs>
<g>
<g id="glyph-0-0">
<path d="M 0.625 -0.234375 L 0.625 -1.34375 L 1 -1.34375 C 1.007812 -0.96875 1.113281 -0.691406 1.3125 -0.515625 C 1.519531 -0.335938 1.828125 -0.25 2.234375 -0.25 C 2.628906 -0.25 2.925781 -0.328125 3.125 -0.484375 C 3.332031 -0.640625 3.4375 -0.863281 3.4375 -1.15625 C 3.4375 -1.382812 3.375 -1.5625 3.25 -1.6875 C 3.125 -1.820312 2.863281 -1.945312 2.46875 -2.0625 L 1.828125 -2.25 C 1.359375 -2.394531 1.03125 -2.570312 0.84375 -2.78125 C 0.65625 -2.988281 0.5625 -3.28125 0.5625 -3.65625 C 0.5625 -4.0625 0.707031 -4.378906 1 -4.609375 C 1.289062 -4.835938 1.703125 -4.953125 2.234375 -4.953125 C 2.460938 -4.953125 2.707031 -4.925781 2.96875 -4.875 C 3.238281 -4.832031 3.53125 -4.765625 3.84375 -4.671875 L 3.84375 -3.625 L 3.46875 -3.625 C 3.4375 -3.96875 3.320312 -4.21875 3.125 -4.375 C 2.9375 -4.53125 2.644531 -4.609375 2.25 -4.609375 C 1.90625 -4.609375 1.644531 -4.535156 1.46875 -4.390625 C 1.289062 -4.253906 1.203125 -4.050781 1.203125 -3.78125 C 1.203125 -3.550781 1.265625 -3.367188 1.390625 -3.234375 C 1.523438 -3.097656 1.8125 -2.96875 2.25 -2.84375 L 2.859375 -2.65625 C 3.296875 -2.53125 3.609375 -2.363281 3.796875 -2.15625 C 3.984375 -1.945312 4.078125 -1.671875 4.078125 -1.328125 C 4.078125 -0.859375 3.925781 -0.503906 3.625 -0.265625 C 3.320312 -0.0234375 2.875 0.09375 2.28125 0.09375 C 2.007812 0.09375 1.734375 0.0664062 1.453125 0.015625 C 1.179688 -0.0351562 0.90625 -0.117188 0.625 -0.234375 Z "/>
</g>
<g id="glyph-0-1">
<path d="M 5.078125 0 L 4.546875 0 L 3.4375 -3.953125 L 2.328125 0 L 1.78125 0 L 0.515625 -4.515625 L 0.03125 -4.515625 L 0.03125 -4.859375 L 1.8125 -4.859375 L 1.8125 -4.515625 L 1.203125 -4.515625 L 2.21875 -0.921875 L 3.328125 -4.859375 L 3.84375 -4.859375 L 4.984375 -0.875 L 6 -4.515625 L 5.4375 -4.515625 L 5.4375 -4.859375 L 6.84375 -4.859375 L 6.84375 -4.515625 L 6.359375 -4.515625 Z "/>
</g>
<g id="glyph-0-2">
<path d="M 1.328125 -1.765625 L 3.125 -1.765625 L 2.234375 -4.078125 Z M -0.046875 0 L -0.046875 -0.34375 L 0.390625 -0.34375 L 2.125 -4.859375 L 2.671875 -4.859375 L 4.40625 -0.34375 L 4.890625 -0.34375 L 4.890625 0 L 3.109375 0 L 3.109375 -0.34375 L 3.65625 -0.34375 L 3.25 -1.40625 L 1.203125 -1.40625 L 0.796875 -0.34375 L 1.328125 -0.34375 L 1.328125 0 Z "/>
</g>
<g id="glyph-0-3">
<path d="M 1.640625 -0.34375 L 2.25 -0.34375 C 2.882812 -0.34375 3.367188 -0.519531 3.703125 -0.875 C 4.046875 -1.238281 4.21875 -1.757812 4.21875 -2.4375 C 4.21875 -3.113281 4.046875 -3.628906 3.703125 -3.984375 C 3.367188 -4.335938 2.882812 -4.515625 2.25 -4.515625 L 1.640625 -4.515625 Z M 0.375 0 L 0.375 -0.34375 L 0.984375 -0.34375 L 0.984375 -4.515625 L 0.375 -4.515625 L 0.375 -4.859375 L 2.296875 -4.859375 C 3.140625 -4.859375 3.796875 -4.644531 4.265625 -4.21875 C 4.734375 -3.789062 4.96875 -3.195312 4.96875 -2.4375 C 4.96875 -1.675781 4.734375 -1.078125 4.265625 -0.640625 C 3.796875 -0.210938 3.140625 0 2.296875 0 Z "/>
</g>
<g id="glyph-0-4">
<path d="M 0.375 0 L 0.375 -0.34375 L 0.984375 -0.34375 L 0.984375 -4.515625 L 0.375 -4.515625 L 0.375 -4.859375 L 4.28125 -4.859375 L 4.28125 -3.78125 L 3.890625 -3.78125 L 3.890625 -4.46875 L 1.640625 -4.46875 L 1.640625 -2.828125 L 3.234375 -2.828125 L 3.234375 -3.4375 L 3.640625 -3.4375 L 3.640625 -1.828125 L 3.234375 -1.828125 L 3.234375 -2.4375 L 1.640625 -2.4375 L 1.640625 -0.40625 L 3.9375 -0.40625 L 3.9375 -1.078125 L 4.34375 -1.078125 L 4.34375 0 Z "/>
</g>
<g id="glyph-0-5">
<path d="M 0.375 0 L 0.375 -0.34375 L 0.984375 -0.34375 L 0.984375 -4.515625 L 0.375 -4.515625 L 0.375 -4.859375 L 2.265625 -4.859375 L 2.265625 -4.515625 L 1.640625 -4.515625 L 1.640625 -2.828125 L 4.171875 -2.828125 L 4.171875 -4.515625 L 3.546875 -4.515625 L 3.546875 -4.859375 L 5.453125 -4.859375 L 5.453125 -4.515625 L 4.828125 -4.515625 L 4.828125 -0.34375 L 5.453125 -0.34375 L 5.453125 0 L 3.546875 0 L 3.546875 -0.34375 L 4.171875 -0.34375 L 4.171875 -2.4375 L 1.640625 -2.4375 L 1.640625 -0.34375 L 2.265625 -0.34375 L 2.265625 0 Z "/>
</g>
<g id="glyph-0-6">
<path d="M 1.640625 -0.34375 L 2.265625 -0.34375 L 2.265625 0 L 0.375 0 L 0.375 -0.34375 L 0.984375 -0.34375 L 0.984375 -4.515625 L 0.375 -4.515625 L 0.375 -4.859375 L 2.265625 -4.859375 L 2.265625 -4.515625 L 1.640625 -4.515625 Z "/>
</g>
</g>
</defs>
<g fill="rgb(51.372549%, 75.686275%, 40.392157%)" fill-opacity="1">
<use xlink:href="#glyph-0-0" x="30" y="26.188477"/>
<use xlink:href="#glyph-0-1" x="35" y="26.188477"/>
<use xlink:href="#glyph-0-2" x="42" y="26.188477"/>
<use xlink:href="#glyph-0-3" x="47" y="26.188477"/>
<use xlink:href="#glyph-0-4" x="52" y="26.188477"/>
<use xlink:href="#glyph-0-0" x="57" y="26.188477"/>
<use xlink:href="#glyph-0-5" x="62" y="26.188477"/>
<use xlink:href="#glyph-0-6" x="68" y="26.188477"/>
</g>
</svg>
