<?xml version="1.0" encoding="UTF-8"?>
<svg xmlns="http://www.w3.org/2000/svg" xmlns:xlink="http://www.w3.org/1999/xlink" width="854" height="480" viewBox="0 0 854 480">
<defs>
<g>
<g id="glyph-0-0">
<path d="M 1.640625 -0.34375 L 2.625 -0.34375 C 3.007812 -0.34375 3.289062 -0.425781 3.46875 -0.59375 C 3.65625 -0.769531 3.75 -1.039062 3.75 -1.40625 C 3.75 -1.769531 3.660156 -2.035156 3.484375 -2.203125 C 3.304688 -2.378906 3.019531 -2.46875 2.625 -2.46875 L 1.640625 -2.46875 Z M 1.640625 -2.8125 L 2.46875 -2.8125 C 2.832031 -2.8125 3.09375 -2.878906 3.25 -3.015625 C 3.414062 -3.148438 3.5 -3.363281 3.5 -3.65625 C 3.5 -3.957031 3.414062 -4.175781 3.25 -4.3125 C 3.09375 -4.445312 2.832031 -4.515625 2.46875 -4.515625 L 1.640625 -4.515625 Z M 0.375 0 L 0.375 -0.34375 L 0.984375 -0.34375 L 0.984375 -4.515625 L 0.375 -4.515625 L 0.375 -4.859375 L 2.765625 -4.859375 C 3.253906 -4.859375 3.625 -4.757812 3.875 -4.5625 C 4.125 -4.363281 4.25 -4.0625 4.25 -3.65625 C 4.25 -3.375 4.160156 -3.144531 3.984375 -2.96875 C 3.816406 -2.800781 3.566406 -2.695312 3.234375 -2.65625 C 3.648438 -2.601562 3.960938 -2.46875 4.171875 -2.25 C 4.390625 -2.039062 4.5 -1.757812 4.5 -1.40625 C 4.5 -0.925781 4.34375 -0.570312 4.03125 -0.34375 C 3.726562 -0.113281 3.253906 0 2.609375 0 Z "/>
</g>
<g id="glyph-0-1">
<path d="M 2.734375 -0.25 C 3.265625 -0.25 3.664062 -0.429688 3.9375 -0.796875 C 4.207031 -1.171875 4.34375 -1.710938 4.34375 -2.421875 C 4.34375 -3.140625 4.207031 -3.679688 3.9375 -4.046875 C 3.664062 -4.421875 3.265625 -4.609375 2.734375 -4.609375 C 2.203125 -4.609375 1.800781 -4.421875 1.53125 -4.046875 C 1.257812 -3.679688 1.125 -3.140625 1.125 -2.421875 C 1.125 -1.710938 1.257812 -1.171875 1.53125 -0.796875 C 1.800781 -0.429688 2.203125 -0.25 2.734375 -0.25 Z M 2.734375 0.09375 C 2.398438 0.09375 2.09375 0.0390625 1.8125 -0.0625 C 1.539062 -0.175781 1.300781 -0.335938 1.09375 -0.546875 C 0.851562 -0.785156 0.671875 -1.0625 0.546875 -1.375 C 0.429688 -1.6875 0.375 -2.035156 0.375 -2.421875 C 0.375 -2.816406 0.429688 -3.164062 0.546875 -3.46875 C 0.671875 -3.78125 0.851562 -4.0625 1.09375 -4.3125 C 1.300781 -4.519531 1.539062 -4.675781 1.8125 -4.78125 C 2.09375 -4.894531 2.398438 -4.953125 2.734375 -4.953125 C 3.441406 -4.953125 4.007812 -4.71875 4.4375 -4.25 C 4.875 -3.789062 5.09375 -3.179688 5.09375 -2.421875 C 5.09375 -2.035156 5.03125 -1.6875 4.90625 -1.375 C 4.789062 -1.0625 4.613281 -0.785156 4.375 -0.546875 C 4.164062 -0.335938 3.921875 -0.175781 3.640625 -0.0625 C 3.367188 0.0390625 3.066406 0.09375 2.734375 0.09375 Z "/>
</g>
<g id="glyph-0-2">
<path d="M 1.265625 0 L 1.265625 -0.34375 L 1.890625 -0.34375 L 1.890625 -2.09375 L 0.375 -4.515625 L -0.078125 -4.515625 L -0.078125 -4.859375 L 1.734375 -4.859375 L 1.734375 -4.515625 L 1.171875 -4.515625 L 2.375 -2.546875 L 3.59375 -4.515625 L 3.046875 -4.515625 L 3.046875 -4.859375 L 4.46875 -4.859375 L 4.46875 -4.515625 L 4 -4.515625 L 2.546875 -2.15625 L 2.546875 -0.34375 L 3.15625 -0.34375 L 3.15625 0 Z "/>
</g>
<g id="glyph-0-3">
<path d="M 4.703125 -1.28125 C 4.554688 -0.832031 4.3125 -0.488281 3.96875 -0.25 C 3.632812 -0.0195312 3.210938 0.09375 2.703125 0.09375 C 2.378906 0.09375 2.082031 0.0390625 1.8125 -0.0625 C 1.539062 -0.175781 1.300781 -0.335938 1.09375 -0.546875 C 0.851562 -0.785156 0.671875 -1.0625 0.546875 -1.375 C 0.429688 -1.6875 0.375 -2.035156 0.375 -2.421875 C 0.375 -3.179688 0.59375 -3.789062 1.03125 -4.25 C 1.46875 -4.71875 2.039062 -4.953125 2.75 -4.953125 C 3.019531 -4.953125 3.300781 -4.914062 3.59375 -4.84375 C 3.894531 -4.78125 4.222656 -4.675781 4.578125 -4.53125 L 4.578125 -3.40625 L 4.203125 -3.40625 C 4.117188 -3.8125 3.957031 -4.113281 3.71875 -4.3125 C 3.476562 -4.507812 3.140625 -4.609375 2.703125 -4.609375 C 2.179688 -4.609375 1.785156 -4.421875 1.515625 -4.046875 C 1.253906 -3.679688 1.125 -3.140625 1.125 -2.421875 C 1.125 -1.710938 1.253906 -1.171875 1.515625 -0.796875 C 1.785156 -0.429688 2.179688 -0.25 2.703125 -0.25 C 3.066406 -0.25 3.363281 -0.332031 3.59375 -0.5 C 3.832031 -0.675781 4.003906 -0.9375 4.109375 -1.28125 Z "/>
</g>
<g id="glyph-0-4">
<path d="M 1.28125 0 L 1.28125 -0.34375 L 1.890625 -0.34375 L 1.890625 -4.46875 L 0.46875 -4.46875 L 0.46875 -3.71875 L 0.0625 -3.71875 L 0.0625 -4.859375 L 4.390625 -4.859375 L 4.390625 -3.71875 L 3.984375 -3.71875 L 3.984375 -4.46875 L 2.546875 -4.46875 L 2.546875 -0.34375 L 3.171875 -0.34375 L 3.171875 0 Z "/>
</g>
</g>
</defs>
<g fill="rgb(98.823529%, 38.431373%, 33.333333%)" fill-opacity="1">
<use xlink:href="#glyph-0-0" x="30" y="26.188477"/>
<use xlink:href="#glyph-0-1" x="35" y="26.188477"/>
<use xlink:href="#glyph-0-2" x="40" y="26.188477"/>
<use xlink:href="#glyph-0-3" x="44" y="26.188477"/>
<use xlink:href="#glyph-0-1" x="49" y="26.188477"/>
<use xlink:href="#glyph-0-4" x="54" y="26.188477"/>
<use xlink:href="#glyph-0-4" x="59" y="26.188477"/>
</g>
</svg>
